<svg width="89" height="40" viewBox="0 0 89 40" fill="none" xmlns="http://www.w3.org/2000/svg">
<g clip-path="url(#clip0_234_5497)">
<path d="M48.708 0.164841C48.7748 0.186421 48.8415 0.208001 48.9103 0.230236C49.0177 0.265695 49.0177 0.265695 49.1273 0.30187C49.2044 0.326972 49.2816 0.352033 49.3587 0.377058C49.524 0.430751 49.6891 0.484712 49.8542 0.53889C50.1182 0.625511 50.3824 0.711528 50.6466 0.79745C50.9672 0.901758 51.2878 1.0062 51.6083 1.1108C52.1523 1.28833 52.6967 1.46476 53.2413 1.64028C53.2986 1.65874 53.2986 1.65874 53.3571 1.67757C53.5485 1.73926 53.74 1.80093 53.9315 1.86259C54.2799 1.97481 54.6283 2.0872 54.9767 2.19959C55.0939 2.23737 55.211 2.27515 55.3281 2.31292C56.2162 2.59942 57.1042 2.88631 57.9922 3.17323C58.0329 3.18638 58.0736 3.19953 58.1155 3.21307C58.7751 3.42618 59.4346 3.63931 60.0941 3.85244C60.6711 4.03888 61.248 4.22532 61.825 4.41174C61.9072 4.43832 61.9895 4.4649 62.0718 4.49148C62.9945 4.78964 63.9173 5.08769 64.8402 5.38531C64.8978 5.40386 64.8978 5.40386 64.9564 5.42277C65.1498 5.48512 65.3431 5.54747 65.5365 5.60982C65.5747 5.62215 65.613 5.63449 65.6524 5.6472C65.7296 5.67211 65.8069 5.69703 65.8842 5.72194C67.2042 6.14759 68.5239 6.57426 69.8434 7.00135C71.1147 7.41281 72.3861 7.82368 73.6579 8.23374C73.6961 8.24607 73.7343 8.2584 73.7737 8.27109C73.8509 8.29599 73.9281 8.32089 74.0053 8.34579C74.1986 8.40811 74.3919 8.47044 74.5852 8.53277C74.6235 8.54512 74.6618 8.55747 74.7013 8.5702C75.5895 8.85664 76.4776 9.1436 77.3656 9.43059C78.9527 9.94345 80.5398 10.4559 82.1272 10.9677C82.2691 11.0135 82.411 11.0593 82.5529 11.1052C82.9009 11.2177 83.2491 11.3295 83.5979 11.4394C83.7732 11.4947 83.9484 11.5503 84.1236 11.606C84.2082 11.6328 84.2928 11.6594 84.3775 11.6859C84.4948 11.7225 84.6118 11.7597 84.7289 11.797C84.796 11.8181 84.8632 11.8392 84.9324 11.861C85.0837 11.9213 85.0837 11.9213 85.1442 12.0424C83.8309 12.0755 82.5177 12.0997 81.204 12.1145C80.5935 12.1215 79.9832 12.1311 79.3728 12.1474C76.2632 12.2285 73.62 12.0022 70.708 10.868C70.0233 10.6017 69.3259 10.3843 68.6234 10.1699C68.2792 10.0643 67.936 9.95523 67.5927 9.84659C67.5125 9.82128 67.4322 9.79599 67.3519 9.77071C66.4208 9.47736 65.4899 9.18346 64.559 8.88955C64.4106 8.8427 64.2622 8.79587 64.1138 8.74903C63.1035 8.4301 62.0933 8.11088 61.0836 7.78981C61.0439 7.77717 61.0041 7.76453 60.9632 7.75151C60.7656 7.6887 60.5681 7.62587 60.3706 7.56305C60.332 7.55077 60.2933 7.53849 60.2536 7.52584C60.1756 7.50103 60.0976 7.47622 60.0196 7.45141C58.7658 7.05263 57.5104 6.65896 56.2542 6.26772C54.7781 5.80792 53.3047 5.33985 51.8324 4.86774C51.7886 4.8537 51.7448 4.83966 51.6997 4.82519C51.6124 4.79718 51.5251 4.76916 51.4378 4.74112C51.2249 4.67277 51.012 4.60482 50.7987 4.53774C50.416 4.41708 50.0349 4.29422 49.6572 4.15872C49.4865 4.09779 49.315 4.03903 49.1434 3.98047C49.0639 3.95269 48.9847 3.92393 48.9059 3.89404C48.2473 3.6446 47.7761 3.71447 47.1197 3.89116C46.8964 3.95017 46.6715 4.00135 46.4464 4.05314C46.125 4.12742 45.8043 4.20471 45.4835 4.2814C45.3393 4.31574 45.1951 4.35006 45.0509 4.38437C44.7428 4.45773 44.4347 4.53117 44.1266 4.6047C43.6337 4.72232 43.1407 4.83972 42.6477 4.95709C42.4784 4.9974 42.3091 5.03772 42.1398 5.07803C42.0976 5.08807 42.0554 5.09811 42.012 5.10846C41.7106 5.18023 41.4091 5.25203 41.1077 5.32385C39.4758 5.71262 37.8436 6.10006 36.2113 6.4872C35.8419 6.57481 35.4725 6.66244 35.1032 6.75008C34.5844 6.87315 34.0656 6.99622 33.5469 7.11929C32.2096 7.4365 30.8724 7.75382 29.5352 8.07113C29.0158 8.19438 28.4965 8.31761 27.9771 8.44085C26.6221 8.76234 25.2672 9.08387 23.9123 9.40558C23.3707 9.53417 22.8291 9.66274 22.2875 9.7913C21.9263 9.87704 21.5652 9.96279 21.204 10.0486C21.1378 10.0643 21.0716 10.08 21.0034 10.0962C20.8699 10.1279 20.7365 10.1597 20.6031 10.1915C20.2589 10.2735 19.9146 10.3543 19.5697 10.4332C18.8539 10.5982 18.1438 10.7719 17.4371 10.9724C13.8322 11.9947 10.4585 12.2103 6.72121 12.1339C5.99191 12.1193 5.26259 12.1126 4.53317 12.1063C3.0423 12.0933 1.55168 12.0712 0.0610352 12.0424C0.12155 11.9213 0.121551 11.9213 0.233847 11.8802C0.283389 11.8679 0.33293 11.8556 0.383973 11.8429C0.44081 11.8285 0.497649 11.8141 0.556208 11.7993C0.650721 11.7762 0.650719 11.7762 0.74714 11.7527C0.813242 11.7361 0.879346 11.7195 0.94745 11.7025C1.16939 11.647 1.39149 11.5922 1.61361 11.5375C1.77118 11.4982 1.92875 11.4589 2.08631 11.4196C2.4635 11.3256 2.84082 11.232 3.21818 11.1387C3.58469 11.048 3.9511 10.9569 4.31747 10.8656C5.05733 10.6813 5.7973 10.4975 6.53743 10.3143C6.60418 10.2978 6.60419 10.2978 6.67229 10.281C7.28263 10.1299 7.89313 9.97947 8.50382 9.82976C10.9462 9.23063 13.386 8.62107 15.8253 8.00937C15.8686 7.99851 15.9119 7.98765 15.9565 7.97646C16.7762 7.7709 17.5959 7.56529 18.4156 7.35965C19.8373 7.00294 21.2592 6.64653 22.681 6.29032C22.7824 6.26494 22.8837 6.23955 22.985 6.21417C23.8079 6.00801 24.6308 5.80187 25.4537 5.59573C26.1876 5.41189 26.9215 5.22804 27.6554 5.04417C27.7338 5.02454 27.7338 5.02454 27.8137 5.00451C29.5185 4.5774 31.2231 4.14978 32.9277 3.72191C34.6896 3.27965 36.4517 2.83795 38.2139 2.39695C38.4623 2.33478 38.7108 2.27261 38.9592 2.21043C39.0325 2.19208 39.0325 2.19208 39.1073 2.17336C39.8924 1.97683 40.6774 1.7797 41.4623 1.58235C42.2483 1.38473 43.0344 1.18773 43.8207 0.991362C44.2875 0.874783 44.7541 0.757728 45.2205 0.639989C45.5684 0.552245 45.9164 0.465391 46.2646 0.378886C46.4055 0.343709 46.5464 0.30824 46.6873 0.272456C46.8782 0.223977 47.0694 0.176554 47.2607 0.12939C47.3156 0.115173 47.3706 0.100957 47.4272 0.08631C47.89 -0.0257593 48.2531 0.0161442 48.708 0.164841Z" fill="#3B100C"/>
<path d="M14.6445 18.9389C16.1432 20.458 16.5332 22.533 16.5278 24.5922C16.5278 24.6841 16.5278 24.776 16.5278 24.8679C16.5278 25.1154 16.5275 25.3629 16.5271 25.6104C16.5267 25.8698 16.5267 26.1293 16.5266 26.3887C16.5264 26.879 16.5259 27.3693 16.5253 27.8597C16.5245 28.5229 16.5242 29.1861 16.5238 29.8493C16.5232 30.893 16.522 31.9367 16.5209 32.9803C14.504 32.9803 12.487 32.9803 10.409 32.9803C10.389 32.3613 10.369 31.7422 10.3485 31.1044C10.2087 31.3041 10.0689 31.5038 9.92487 31.7095C9.21946 32.6669 8.04968 33.0773 6.91617 33.2583C5.09693 33.4642 3.15231 33.1817 1.6838 32.0329C0.74526 31.2519 0.174364 30.2556 0.000511859 29.0469C-0.109356 27.7055 0.0949288 26.4508 0.976306 25.3971C2.28513 24.0503 4.31887 23.5803 6.14208 23.5348C6.38019 23.5331 6.61825 23.5333 6.85636 23.5342C6.9436 23.5343 7.03084 23.5344 7.11808 23.5344C7.34539 23.5347 7.5727 23.5353 7.80002 23.5359C8.03289 23.5366 8.26577 23.5368 8.49864 23.5371C8.95388 23.5378 9.40912 23.5388 9.86435 23.5401C9.83799 23.4444 9.811 23.349 9.78375 23.2536C9.76878 23.2004 9.75382 23.1472 9.73841 23.0924C9.58235 22.6503 9.23686 22.3166 8.83561 22.0877C7.4168 21.4352 5.67353 21.7252 4.25803 22.2279C3.76208 22.4134 3.296 22.6588 2.84469 22.9349C2.53587 22.3748 2.25072 21.8058 1.97665 21.2279C1.71067 20.667 1.4403 20.1083 1.1692 19.5499C1.12519 19.4592 1.08118 19.3686 1.03717 19.2779C0.933717 19.0647 0.830214 18.8516 0.726684 18.6384C4.10828 15.8247 11.4681 15.991 14.6445 18.9389ZM7.92789 25.8396C7.92789 25.9794 7.92789 26.1192 7.92789 26.2632C7.40868 26.2632 6.88947 26.2632 6.35452 26.2632C6.35452 27.3616 6.35452 28.4599 6.35452 29.5915C7.51277 29.5915 8.67101 29.5915 9.86435 29.5915C9.86435 28.5531 9.86435 27.5147 9.86435 26.4448C9.5673 26.3449 9.27026 26.2451 8.9642 26.1422C8.87053 26.1106 8.77685 26.079 8.68034 26.0465C8.60692 26.0219 8.53351 25.9973 8.45787 25.972C8.38245 25.9467 8.30702 25.9213 8.22931 25.8952C8.0611 25.8337 8.0611 25.8337 7.92789 25.8396Z" fill="#3B100C"/>
<path d="M86.8386 18.82C86.8801 18.8552 86.9216 18.8905 86.9644 18.9268C88.2354 20.1028 88.7743 21.9733 88.8455 23.6518C88.8619 24.2605 88.8571 24.8697 88.854 25.4786C88.8528 25.7432 88.8528 26.0078 88.8525 26.2723C88.852 26.7712 88.8505 27.2701 88.8487 27.769C88.8462 28.4446 88.8453 29.1203 88.8442 29.7959C88.8425 30.8574 88.8389 31.9189 88.8356 32.9803C86.8186 32.9803 84.8017 32.9803 82.7236 32.9803C82.7037 32.3613 82.6837 31.7422 82.6631 31.1044C82.4534 31.4339 82.4534 31.4339 82.2395 31.77C81.3917 32.7329 80.2287 33.1811 78.9718 33.2829C77.1564 33.3851 75.2747 33.1436 73.8576 31.9112C72.9114 31.0244 72.3718 29.9353 72.3029 28.633C72.2808 27.4824 72.4807 26.3551 73.2834 25.4765C73.3245 25.4306 73.3656 25.3847 73.408 25.3373C74.6394 24.0313 76.5838 23.6439 78.3061 23.5401C78.6166 23.5325 78.9269 23.533 79.2374 23.5342C79.3246 23.5343 79.4117 23.5344 79.4989 23.5344C79.7257 23.5347 79.9525 23.5353 80.1793 23.5359C80.4118 23.5366 80.6443 23.5368 80.8768 23.5371C81.331 23.5378 81.7853 23.5388 82.2395 23.5401C82.1914 23.4233 82.1432 23.3065 82.0949 23.1898C82.068 23.1247 82.0412 23.0597 82.0135 22.9927C81.7775 22.4414 81.3942 22.177 80.8515 21.9516C79.4029 21.4687 77.543 21.7403 76.186 22.3886C75.9202 22.523 75.6609 22.6679 75.4014 22.8139C75.3209 22.8546 75.2403 22.895 75.1593 22.9349C74.7201 22.0634 74.2857 21.1901 73.868 20.308C73.7568 20.0734 73.6436 19.8399 73.529 19.6069C73.5005 19.5484 73.4719 19.4899 73.4425 19.4297C73.3881 19.3182 73.3332 19.2069 73.2778 19.0959C73.2538 19.0463 73.2297 18.9968 73.2049 18.9457C73.1835 18.9023 73.1621 18.8589 73.14 18.8141C73.1019 18.6989 73.1019 18.6989 73.1624 18.5174C76.839 16.0826 83.4011 15.8812 86.8386 18.82ZM80.2426 25.8396C80.2426 25.9794 80.2426 26.1192 80.2426 26.2632C79.7233 26.2632 79.2041 26.2632 78.6692 26.2632C78.6692 27.3616 78.6692 28.4599 78.6692 29.5915C79.8274 29.5915 80.9857 29.5915 82.179 29.5915C82.179 28.5531 82.179 27.5147 82.179 26.4448C81.882 26.3449 81.5849 26.2451 81.2789 26.1422C81.1852 26.1106 81.0915 26.079 80.995 26.0465C80.9216 26.0219 80.8482 25.9973 80.7725 25.972C80.6971 25.9467 80.6217 25.9213 80.544 25.8952C80.3758 25.8337 80.3758 25.8337 80.2426 25.8396Z" fill="#3B100C"/>
<path d="M69.7734 18.7595C69.829 18.8029 69.829 18.8029 69.8857 18.8472C70.6695 19.4731 71.2321 20.4346 71.5889 21.3616C71.5889 21.4215 71.5889 21.4814 71.5889 21.5431C71.2008 21.738 70.8126 21.9326 70.4243 22.1271C70.2929 22.1929 70.1615 22.2588 70.0302 22.3247C68.8643 22.91 67.6932 23.484 66.5057 24.0242C66.4844 23.9825 66.4631 23.9407 66.4411 23.8977C66.0174 23.0913 65.5008 22.4256 64.6297 22.0878C63.9276 21.8835 63.1907 21.9256 62.519 22.2263C61.8432 22.6122 61.4562 23.1277 61.2386 23.8779C60.9888 24.9924 61.0666 26.1206 61.6645 27.1104C61.9907 27.6044 62.545 27.922 63.1164 28.0522C63.9183 28.1688 64.6587 28.0796 65.3408 27.6248C65.8579 27.22 66.2134 26.6633 66.5057 26.0817C66.8145 26.1752 67.0946 26.3053 67.3831 26.4474C67.4577 26.4838 67.4577 26.4838 67.5337 26.5209C67.6954 26.5999 67.857 26.6793 68.0185 26.7587C68.1302 26.8134 68.2418 26.868 68.3535 26.9226C69.1073 27.2919 69.8592 27.6649 70.6084 28.0434C70.9317 28.2063 71.2534 28.3657 71.5889 28.5023C71.5544 28.8153 71.454 29.0542 71.3128 29.3306C71.2912 29.3731 71.2696 29.4157 71.2473 29.4595C70.3682 31.1483 68.7746 32.2744 66.9947 32.8582C64.2527 33.7019 61.1004 33.4046 58.5634 32.0766C56.6611 31.0484 55.2957 29.3662 54.6716 27.3062C54.0909 25.2619 54.3204 22.9814 55.3381 21.1135C55.5736 20.7016 55.8498 20.3299 56.1577 19.9697C56.1973 19.9231 56.1973 19.9231 56.2376 19.8755C57.8663 17.9741 60.2475 17.0222 62.7008 16.8041C65.2516 16.6103 67.7804 17.0779 69.7734 18.7595Z" fill="#3B100C"/>
<path d="M20.0308 13.4947C22.2075 13.4947 24.3842 13.4947 26.6269 13.4947C26.6269 14.9725 26.6269 16.4502 26.6269 17.9728C27.7052 17.9728 28.7836 17.9728 29.8947 17.9728C29.8947 19.5504 29.8947 21.128 29.8947 22.7534C28.8163 22.7534 27.7379 22.7534 26.6269 22.7534C26.6324 23.5023 26.6324 23.5023 26.6395 24.2511C26.6428 24.5569 26.6459 24.8628 26.6478 25.1686C26.6494 25.4154 26.6519 25.6622 26.6549 25.909C26.6559 26.0027 26.6566 26.0965 26.657 26.1902C26.6514 27.0743 26.6514 27.0743 27.0089 27.8631C27.3277 28.167 27.6478 28.2602 28.0792 28.2602C28.4981 28.2245 28.8638 28.1371 29.2387 27.9458C29.35 27.8971 29.35 27.8971 29.5316 27.8971C29.5506 27.9534 29.5506 27.9534 29.5701 28.0107C29.7045 28.4075 29.8391 28.8042 29.9737 29.2009C30.0236 29.3482 30.0736 29.4955 30.1235 29.6428C30.196 29.8567 30.2686 30.0707 30.3412 30.2846C30.3648 30.3544 30.3885 30.4243 30.4128 30.4962C30.5237 30.8228 30.636 31.1487 30.7532 31.473C30.7733 31.5291 30.7935 31.5853 30.8143 31.6431C30.8518 31.7469 30.8897 31.8504 30.9282 31.9538C31.0511 32.2946 31.0511 32.2946 30.9839 32.4962C30.8428 32.5754 30.7085 32.6412 30.5603 32.7042C30.4954 32.732 30.4954 32.732 30.4291 32.7604C29.9603 32.9535 29.485 33.0723 28.9869 33.1619C28.9111 33.1755 28.8353 33.1892 28.7572 33.2032C26.5925 33.5184 24.038 33.3285 22.2093 32.0121C20.9893 31.0741 20.3339 29.7014 20.1131 28.2011C19.9852 27.164 20.017 26.1154 20.0225 25.0725C20.024 24.764 20.0245 24.4555 20.0252 24.1469C20.0264 23.6824 20.0287 23.2179 20.0308 22.7534C19.3119 22.7534 18.593 22.7534 17.8523 22.7534C17.8523 21.1758 17.8523 19.5982 17.8523 17.9728C18.5712 17.9728 19.2901 17.9728 20.0308 17.9728C20.0308 16.495 20.0308 15.0172 20.0308 13.4947Z" fill="#3B100C"/>
<path d="M33.2719 13.4873C33.32 13.4873 33.3682 13.4874 33.4178 13.4874C33.4728 13.4874 33.5279 13.4873 33.5847 13.4872C33.6456 13.4874 33.7064 13.4876 33.7692 13.4878C33.8329 13.4878 33.8967 13.4878 33.9624 13.4878C34.1742 13.4879 34.3861 13.4883 34.5979 13.4888C34.7444 13.4889 34.8908 13.489 35.0373 13.4891C35.4236 13.4893 35.8099 13.4899 36.1962 13.4906C36.6592 13.4913 37.1222 13.4916 37.5853 13.4919C38.2895 13.4925 38.9937 13.4937 39.6979 13.4947C39.6979 14.9725 39.6979 16.4502 39.6979 17.9728C40.7763 17.9728 41.8547 17.9728 42.9657 17.9728C42.9657 19.5504 42.9657 21.128 42.9657 22.7534C41.8873 22.7534 40.809 22.7534 39.6979 22.7534C39.7052 23.493 39.7052 23.493 39.7135 24.2326C39.7172 24.5346 39.7207 24.8365 39.7235 25.1385C39.7257 25.3822 39.7285 25.6258 39.7317 25.8695C39.7328 25.9621 39.7337 26.0547 39.7344 26.1473C39.7318 27.1692 39.7318 27.1692 40.2426 28.0182C40.7012 28.3342 41.2251 28.2733 41.7495 28.1843C42.0007 28.1238 42.1959 28.0222 42.4211 27.8971C42.481 27.8971 42.5409 27.8971 42.6026 27.8971C42.6269 27.9686 42.6513 28.0401 42.6763 28.1137C42.7491 28.3275 42.8219 28.5413 42.8948 28.7551C42.9776 28.9982 43.0603 29.2413 43.143 29.4844C43.3289 30.0308 43.5153 30.5768 43.7075 31.1209C43.7362 31.2026 43.7649 31.2842 43.7935 31.3658C43.8458 31.5139 43.8985 31.6619 43.9516 31.8097C43.9745 31.8747 43.9974 31.9397 44.0209 32.0067C44.0408 32.0623 44.0607 32.1179 44.0812 32.1752C44.1155 32.3147 44.1155 32.3147 44.055 32.4962C43.9139 32.5754 43.7796 32.6413 43.6314 32.7042C43.5664 32.7321 43.5664 32.7321 43.5001 32.7604C43.0313 32.9535 42.5561 33.0724 42.058 33.1619C41.9822 33.1755 41.9063 33.1892 41.8282 33.2032C39.7385 33.5075 37.1679 33.3534 35.3915 32.0856C34.1611 31.1247 33.436 29.8408 33.2011 28.2985C33.0658 27.1912 33.0873 26.0758 33.0935 24.9627C33.095 24.6684 33.0956 24.3741 33.0963 24.0798C33.0974 23.6377 33.0997 23.1956 33.1019 22.7534C32.3829 22.7534 31.664 22.7534 30.9233 22.7534C30.9233 21.1758 30.9233 19.5982 30.9233 17.9728C31.6423 17.9728 32.3612 17.9728 33.1019 17.9728C33.1012 17.6546 33.1005 17.3364 33.0997 17.0086C33.0994 16.8075 33.0991 16.6065 33.0989 16.4054C33.0985 16.086 33.0981 15.7666 33.0973 15.4472C33.0966 15.1898 33.0963 14.9324 33.0961 14.675C33.096 14.5766 33.0958 14.4782 33.0955 14.3797C33.095 14.2424 33.095 14.105 33.095 13.9676C33.0949 13.8893 33.0947 13.8109 33.0946 13.7302C33.1042 13.4987 33.1042 13.4987 33.2719 13.4873Z" fill="#3B100C"/>
<path d="M45.7493 17.0651C47.926 17.0651 50.1027 17.0651 52.3453 17.0651C52.3453 22.3171 52.3453 27.5691 52.3453 32.9803C50.1686 32.9803 47.9919 32.9803 45.7493 32.9803C45.7493 27.7283 45.7493 22.4763 45.7493 17.0651Z" fill="#3B100C"/>
<path d="M51.8007 9.86383C52.4432 10.3795 52.8539 10.9871 53.0109 11.8003C53.1151 12.84 52.9026 13.8093 52.2325 14.6305C51.4198 15.4789 50.3644 15.8148 49.2132 15.8545C48.0303 15.8697 46.8718 15.5832 45.9837 14.7631C45.3328 14.0824 45.061 13.2437 45.0706 12.3151C45.129 11.361 45.5256 10.6124 46.2333 9.98486C47.7488 8.82134 50.2313 8.7482 51.8007 9.86383Z" fill="#3B100C"/>
<path d="M60.999 36.5507C61.1388 36.5507 61.2786 36.5507 61.4226 36.5507C61.5401 36.6738 61.5401 36.6738 61.6382 36.857C61.6779 36.9282 61.7177 36.9993 61.7576 37.0703C61.7801 37.1114 61.8027 37.1524 61.8259 37.1948C62.0315 37.5576 62.2578 37.9089 62.4773 38.2634C62.513 38.3219 62.5488 38.3803 62.5856 38.4406C62.618 38.4933 62.6505 38.5459 62.6839 38.6002C62.7539 38.7292 62.7539 38.7292 62.7539 38.8502C62.7939 38.8502 62.8338 38.8502 62.875 38.8502C62.8911 38.8071 62.9073 38.7639 62.924 38.7195C62.9978 38.5433 63.0842 38.3845 63.1804 38.2196C63.2166 38.1575 63.2528 38.0954 63.2901 38.0314C63.3278 37.9671 63.3656 37.9028 63.4045 37.8366C63.4413 37.7733 63.4781 37.7099 63.516 37.6447C63.5891 37.5198 63.6628 37.3955 63.7374 37.2715C63.8056 37.1579 63.8722 37.0433 63.9367 36.9276C63.9661 36.8778 63.9954 36.828 64.0257 36.7767C64.0505 36.7328 64.0753 36.689 64.1009 36.6438C64.2063 36.5507 64.2063 36.5507 64.6299 36.5507C64.6299 37.669 64.6299 38.7873 64.6299 39.9395C64.4701 39.9395 64.3104 39.9395 64.1458 39.9395C64.1258 39.1806 64.1058 38.4218 64.0853 37.6399C63.7519 38.2119 63.7519 38.2119 63.419 38.7841C63.3772 38.8558 63.3353 38.9275 63.2934 38.9992C63.261 39.0551 63.261 39.0551 63.2279 39.1121C63.1396 39.2628 63.0596 39.3918 62.9355 39.5159C62.7924 39.5473 62.7924 39.5473 62.6329 39.5159C62.5307 39.3879 62.4577 39.2763 62.3805 39.1341C62.3582 39.0953 62.3359 39.0565 62.313 39.0165C62.242 38.8923 62.1727 38.7673 62.1034 38.6422C62.0558 38.5581 62.0082 38.4741 61.9604 38.3901C61.8932 38.2721 61.8263 38.154 61.7601 38.0354C61.6671 37.8571 61.6671 37.8571 61.5437 37.7005C61.5237 38.4393 61.5037 39.1782 61.4831 39.9395C61.3234 39.9395 61.1636 39.9395 60.999 39.9395C60.999 38.8212 60.999 37.7029 60.999 36.5507Z" fill="#3B100C"/>
<path d="M22.6934 36.5507C23.117 36.5507 23.117 36.5507 23.2189 36.6378C23.2428 36.6801 23.2667 36.7224 23.2914 36.766C23.3354 36.8407 23.3354 36.8407 23.3804 36.9168C23.4133 36.9757 23.4461 37.0346 23.48 37.0953C23.5214 37.1653 23.563 37.2351 23.6048 37.3048C23.7441 37.5377 23.8807 37.7722 24.0171 38.0068C24.065 38.0889 24.1129 38.171 24.1608 38.253C24.277 38.452 24.3929 38.6511 24.5088 38.8502C24.7616 38.4304 25.0138 38.0102 25.2626 37.5879C25.3158 37.4976 25.3158 37.4976 25.3701 37.4055C25.441 37.285 25.5119 37.1645 25.5826 37.044C25.6314 36.961 25.6314 36.961 25.6813 36.8764C25.725 36.8019 25.725 36.8019 25.7697 36.7259C25.8401 36.6112 25.8401 36.6112 25.9006 36.5507C26.0404 36.5507 26.1802 36.5507 26.3242 36.5507C26.3242 37.669 26.3242 38.7873 26.3242 39.9395C26.1645 39.9395 26.0047 39.9395 25.8401 39.9395C25.8201 39.1806 25.8002 38.4218 25.7796 37.6399C25.4247 38.2696 25.4247 38.2696 25.0733 38.9013C25.0314 38.9751 24.9895 39.0488 24.9475 39.1226C24.916 39.1809 24.916 39.1809 24.8839 39.2405C24.8199 39.3514 24.8199 39.3514 24.6903 39.5159C24.5419 39.5405 24.5419 39.5405 24.3878 39.5159C24.2934 39.4214 24.2934 39.4214 24.2133 39.2873C24.1829 39.2376 24.1524 39.1878 24.1211 39.1365C24.0734 39.0547 24.0734 39.0547 24.0247 38.9713C23.9908 38.9152 23.957 38.8592 23.9221 38.8015C23.8164 38.6256 23.7123 38.4488 23.6086 38.2716C23.4863 38.0631 23.364 37.8547 23.238 37.6399C23.218 38.3988 23.198 39.1576 23.1775 39.9395C23.0177 39.9395 22.858 39.9395 22.6934 39.9395C22.6934 38.8212 22.6934 37.7029 22.6934 36.5507Z" fill="#3B100C"/>
<path d="M72.7055 36.7589C73.0983 37.0392 73.3736 37.4008 73.4648 37.882C73.516 38.4545 73.4372 38.9467 73.0866 39.4138C72.6703 39.8206 72.2374 39.9945 71.6607 40.0227C71.1259 40.0087 70.6806 39.8113 70.297 39.4426C69.9469 39.0636 69.8024 38.6597 69.8198 38.1472C69.8772 37.5636 70.1153 37.1759 70.5601 36.7927C71.224 36.3915 72.0308 36.3625 72.7055 36.7589ZM70.6282 37.3979C70.3362 37.8101 70.3236 38.1671 70.3786 38.6687C70.5132 39.0325 70.7706 39.2936 71.1206 39.4599C71.4653 39.5764 71.8781 39.5883 72.2212 39.4608C72.5547 39.2633 72.7909 39.0127 72.9429 38.6536C73.0129 38.2332 72.9836 37.8177 72.7386 37.4584C72.4176 37.135 72.1603 36.9571 71.6948 36.9516C71.2413 36.9597 70.9307 37.0534 70.6282 37.3979Z" fill="#3B100C"/>
<path d="M39.8794 36.5507C40.1565 36.5457 40.4336 36.5407 40.719 36.5355C40.8051 36.5333 40.8913 36.5311 40.98 36.5289C41.4728 36.5246 41.942 36.5494 42.3387 36.8739C42.5619 37.1153 42.6603 37.3861 42.6649 37.7125C42.6421 38.0485 42.5583 38.275 42.3605 38.5477C42.2435 38.6443 42.1302 38.7143 41.9974 38.7897C42.0889 39.0573 42.2346 39.2731 42.3983 39.5008C42.6631 39.8719 42.6631 39.8719 42.6631 39.9395C42.4742 39.9688 42.3062 39.9798 42.1184 39.9395C41.9802 39.8012 41.9064 39.6329 41.8196 39.4591C41.6302 39.1232 41.6302 39.1232 41.3167 38.9195C40.9886 38.8621 40.7029 38.8903 40.3635 38.9107C40.3635 39.2502 40.3635 39.5897 40.3635 39.9395C40.2038 39.9395 40.044 39.9395 39.8794 39.9395C39.8794 38.8212 39.8794 37.7029 39.8794 36.5507ZM40.3635 36.9743C40.3635 37.4735 40.3635 37.9728 40.3635 38.4871C40.5432 38.4921 40.723 38.4971 40.9081 38.5023C40.9638 38.5045 41.0194 38.5067 41.0767 38.5089C41.423 38.5135 41.7189 38.4647 41.9974 38.2451C42.15 37.9891 42.1675 37.7502 42.1184 37.4584C42.0146 37.2477 41.8753 37.1217 41.6589 37.0256C41.3964 36.9602 41.1545 36.9612 40.8854 36.9667C40.7132 36.9692 40.541 36.9717 40.3635 36.9743Z" fill="#3B100C"/>
<path d="M86.4756 36.5507C87.2744 36.5507 88.0732 36.5507 88.8962 36.5507C88.8962 36.6905 88.8962 36.8303 88.8962 36.9743C88.2571 36.9743 87.6181 36.9743 86.9597 36.9743C86.9597 37.3138 86.9597 37.6533 86.9597 38.003C87.5189 38.003 88.078 38.003 88.6541 38.003C88.6541 38.1428 88.6541 38.2826 88.6541 38.4266C88.095 38.4266 87.5358 38.4266 86.9597 38.4266C86.9597 38.7861 86.9597 39.1455 86.9597 39.5159C87.6187 39.5159 88.2777 39.5159 88.9567 39.5159C88.9567 39.6557 88.9567 39.7955 88.9567 39.9395C88.1379 39.9395 87.3192 39.9395 86.4756 39.9395C86.4756 38.8212 86.4756 37.7029 86.4756 36.5507Z" fill="#3B100C"/>
<path d="M32.8598 36.5507C33.0195 36.5507 33.1793 36.5507 33.3439 36.5507C33.6676 37.1879 33.9779 37.8301 34.2749 38.4803C34.3397 38.6219 34.405 38.7633 34.4704 38.9047C34.5121 38.9958 34.5539 39.087 34.5956 39.1781C34.6149 39.2198 34.6342 39.2616 34.6542 39.3046C34.7496 39.5148 34.8237 39.7104 34.8568 39.9395C34.697 39.9395 34.5372 39.9395 34.3726 39.9395C34.3118 39.8211 34.2514 39.7026 34.1911 39.584C34.1574 39.518 34.1237 39.452 34.089 39.384C34.0096 39.2133 34.0096 39.2133 34.0096 39.0923C33.4105 39.0923 32.8114 39.0923 32.1941 39.0923C32.1342 39.272 32.0743 39.4517 32.0126 39.6369C31.9407 39.8222 31.9407 39.8222 31.831 39.9395C31.6619 39.965 31.5195 39.9536 31.3469 39.9395C31.462 39.5717 31.598 39.2223 31.7606 38.8732C31.7825 38.8257 31.8043 38.7782 31.8268 38.7293C31.8728 38.6296 31.9189 38.53 31.9651 38.4304C32.0349 38.2798 32.1044 38.1291 32.1738 37.9783C32.395 37.4987 32.6179 37.0204 32.8598 36.5507ZM33.0413 37.1558C32.9399 37.3737 32.8393 37.5919 32.7388 37.8101C32.7099 37.8721 32.681 37.9341 32.6513 37.998C32.624 38.0574 32.5967 38.1169 32.5686 38.1782C32.5432 38.233 32.5179 38.2878 32.4917 38.3443C32.4252 38.4898 32.4252 38.4898 32.4362 38.6687C32.8755 38.6687 33.3149 38.6687 33.7675 38.6687C33.7209 38.4359 33.6778 38.281 33.5819 38.0718C33.5576 38.0182 33.5332 37.9646 33.5081 37.9093C33.4826 37.8541 33.4571 37.7989 33.4309 37.7421C33.4052 37.6857 33.3795 37.6293 33.353 37.5713C33.2897 37.4327 33.2262 37.2942 33.1624 37.1558C33.1224 37.1558 33.0825 37.1558 33.0413 37.1558Z" fill="#3B100C"/>
<path d="M2.36052 36.5507C2.54024 36.5507 2.71997 36.5507 2.90514 36.5507C2.93162 36.6103 2.9581 36.67 2.98538 36.7315C3.69797 38.3371 3.69797 38.3371 4.418 39.9395C4.23828 39.9395 4.05855 39.9395 3.87337 39.9395C3.75356 39.6799 3.63374 39.4203 3.51029 39.1528C2.61165 39.1229 2.61165 39.1229 1.69486 39.0923C1.63495 39.272 1.57504 39.4517 1.51331 39.6369C1.47404 39.7382 1.43429 39.8393 1.39229 39.9395C1.21256 39.9395 1.03283 39.9395 0.847656 39.9395C0.947207 39.6143 1.08289 39.3109 1.22351 39.002C1.24828 38.9472 1.27306 38.8925 1.29858 38.8361C1.35089 38.7206 1.40328 38.6051 1.45575 38.4897C1.53551 38.3143 1.61497 38.1387 1.69438 37.9631C1.74543 37.8505 1.79648 37.7379 1.84756 37.6253C1.87108 37.5733 1.8946 37.5214 1.91884 37.4678C2.0596 37.1586 2.20676 36.8537 2.36052 36.5507ZM2.60257 37.0953C2.3145 37.7087 2.3145 37.7087 2.03147 38.3245C2.01283 38.3655 1.99418 38.4064 1.97497 38.4486C1.92968 38.5488 1.92968 38.5488 1.93691 38.6687C2.39622 38.6687 2.85552 38.6687 3.32875 38.6687C3.23077 38.429 3.13238 38.1895 3.03374 37.9501C3.00589 37.8818 2.97804 37.8136 2.94935 37.7432C2.92244 37.6781 2.89552 37.613 2.8678 37.5459C2.83072 37.4556 2.83072 37.4556 2.79289 37.3634C2.7306 37.2097 2.7306 37.2097 2.60257 37.0953Z" fill="#3B100C"/>
<path d="M17.1865 36.6717C17.2464 36.7117 17.3063 36.7516 17.3681 36.7928C17.3281 36.9325 17.2882 37.0723 17.247 37.2164C17.198 37.1982 17.1489 37.18 17.0983 37.1613C16.6542 37.0088 16.2579 36.9057 15.7947 37.0348C15.6061 37.1433 15.6061 37.1433 15.5183 37.3336C15.5185 37.3954 15.5185 37.3954 15.5186 37.4584C15.5173 37.4996 15.5159 37.5408 15.5146 37.5832C15.5446 37.7119 15.5446 37.7119 15.6722 37.7972C15.9512 37.9265 16.2422 37.992 16.5401 38.0646C16.8919 38.1556 17.1615 38.2753 17.4193 38.5425C17.5559 38.7897 17.5236 39.0613 17.4891 39.3344C17.3551 39.6414 17.1768 39.7579 16.8839 39.8934C16.3482 40.0975 15.7722 40.0363 15.25 39.8185C15.1189 39.7454 15.0067 39.6678 14.887 39.5764C14.9469 39.3967 14.9469 39.3967 15.008 39.2133C15.2006 39.2133 15.2429 39.2363 15.4013 39.3306C15.7812 39.5268 16.1989 39.5597 16.6154 39.4705C16.8371 39.4131 16.8371 39.4131 16.9445 39.2133C16.9747 39.0318 16.9747 39.0318 16.9445 38.8502C16.7843 38.703 16.6378 38.6377 16.4289 38.5843C16.351 38.5631 16.351 38.5631 16.2716 38.5414C16.1638 38.513 16.0558 38.4851 15.9477 38.4577C15.5314 38.3428 15.2173 38.1719 14.9777 37.8026C14.9147 37.4638 14.9508 37.1931 15.1252 36.8949C15.6692 36.3354 16.52 36.4006 17.1865 36.6717Z" fill="#3B100C"/>
<path d="M78.064 36.5507C78.2437 36.5507 78.4234 36.5507 78.6086 36.5507C78.8917 37.0983 79.1416 37.6559 79.3839 38.2224C79.4369 38.3458 79.49 38.4692 79.5431 38.5925C79.5905 38.7028 79.6378 38.8131 79.685 38.9234C79.7274 39.0211 79.7713 39.1181 79.8189 39.2133C79.8332 39.1817 79.8474 39.1502 79.8621 39.1176C80.0103 38.7898 80.1585 38.4619 80.3068 38.1341C80.3622 38.0116 80.4175 37.8892 80.4729 37.7667C80.5523 37.591 80.6318 37.4152 80.7112 37.2395C80.7485 37.1571 80.7485 37.1571 80.7865 37.0729C80.8095 37.0221 80.8325 36.9712 80.8562 36.9188C80.8765 36.8739 80.8968 36.829 80.9177 36.7828C80.9535 36.7048 80.9908 36.6274 81.0292 36.5507C81.1889 36.5507 81.3487 36.5507 81.5133 36.5507C81.473 36.8311 81.364 37.0739 81.2478 37.3296C81.2273 37.3755 81.2067 37.4214 81.1856 37.4687C81.1199 37.6154 81.0537 37.762 80.9876 37.9085C80.9228 38.0526 80.8581 38.1968 80.7934 38.341C80.7511 38.4354 80.7087 38.5297 80.6663 38.624C80.5022 38.9897 80.3442 39.3577 80.1891 39.7272C80.1215 39.879 80.1215 39.879 80.0609 39.9395C79.8993 39.948 79.7387 39.9421 79.5768 39.9395C79.2492 39.3198 78.9621 38.684 78.6842 38.0409C78.6589 37.9822 78.6589 37.9822 78.633 37.9223C78.4366 37.4677 78.2455 37.0115 78.064 36.5507Z" fill="#3B100C"/>
<path d="M47.3833 36.5507C48.3019 36.5507 49.2205 36.5507 50.167 36.5507C50.167 36.6905 50.167 36.8303 50.167 36.9743C49.7875 36.9743 49.4081 36.9743 49.0172 36.9743C49.0172 37.9528 49.0172 38.9313 49.0172 39.9395C48.8574 39.9395 48.6977 39.9395 48.5331 39.9395C48.5331 38.961 48.5331 37.9825 48.5331 36.9743C48.1536 36.9743 47.7742 36.9743 47.3833 36.9743C47.3833 36.8345 47.3833 36.6947 47.3833 36.5507Z" fill="#3B100C"/>
<path d="M80.6057 27.7156C81.2348 27.9253 81.2348 27.9253 81.8765 28.1392C81.8765 28.4787 81.8765 28.8181 81.8765 29.1679C81.4387 29.0804 81.0279 28.9504 80.6057 28.8048C80.6057 28.4454 80.6057 28.0859 80.6057 27.7156Z" fill="#3B100C"/>
<path d="M8.29102 27.7156C8.92006 27.9253 8.92006 27.9253 9.56182 28.1392C9.56182 28.4787 9.56182 28.8181 9.56182 29.1679C9.12398 29.0804 8.71324 28.9504 8.29102 28.8048C8.29102 28.4454 8.29102 28.0859 8.29102 27.7156Z" fill="#3B100C"/>
<path d="M80.6057 26.3238C81.0455 26.4341 81.4583 26.5716 81.8765 26.7474C81.8765 27.0669 81.8765 27.3864 81.8765 27.7156C81.7554 27.7761 81.7554 27.7761 81.6427 27.7506C81.5981 27.7355 81.5534 27.7203 81.5075 27.7047C81.459 27.6884 81.4105 27.6721 81.3606 27.6553C81.3099 27.6378 81.2592 27.6202 81.207 27.6021C81.1561 27.585 81.1052 27.568 81.0528 27.5504C80.6751 27.4219 80.6751 27.4219 80.6057 27.3525C80.6012 27.1793 80.6001 27.0075 80.6019 26.8344C80.6022 26.7856 80.6024 26.7368 80.6027 26.6865C80.6034 26.5656 80.6045 26.4447 80.6057 26.3238Z" fill="#3B100C"/>
<path d="M8.29098 26.3238C8.73081 26.4341 9.14365 26.5716 9.56178 26.7474C9.56178 27.0669 9.56178 27.3864 9.56178 27.7156C9.44075 27.7761 9.44075 27.7761 9.32798 27.7506C9.28337 27.7355 9.23875 27.7203 9.19278 27.7047C9.1443 27.6884 9.09582 27.6721 9.04587 27.6553C8.99521 27.6378 8.94454 27.6202 8.89234 27.6021C8.84144 27.585 8.79054 27.568 8.7381 27.5504C8.36039 27.4219 8.36039 27.4219 8.29098 27.3525C8.28654 27.1793 8.28539 27.0075 8.2872 26.8344C8.28747 26.7856 8.28774 26.7368 8.28802 26.6865C8.28874 26.5656 8.28982 26.4447 8.29098 26.3238Z" fill="#3B100C"/>
</g>
<defs>
<clipPath id="clip0_234_5497">
<rect width="88.9561" height="40" fill="white"/>
</clipPath>
</defs>
</svg>
